PathFileType	4	(X/Y/Z)	C:/Users/beibeiliu/ov580/test_trc/User3\sequence.15_training_dense_right.trc
DataRate	CameraRate	NumFrames	NumMarkers	Units	OrigDataRate	OrigDataStartFrame	OrigNumFrames
120	120	24	19	mm	120	176	234
Frame#	Time	ThumbCMC			ThumbMCP			ThumbIP			ThumbTip			IndexMCP			IndexPIP			IndexTip			MiddleMCP			MiddlePIP			MiddleTip			RingMCP			RingPIP			RingTip			PinkyMCP			PinkyPIP			PinkyTip			BackHand1			BackHand2			BackHand3	
		X0	Y0	Z0	X1	Y1	Z1	X2	Y2	Z2	X3	Y3	Z3	X4	Y4	Z4	X5	Y5	Z5	X6	Y6	Z6	X7	Y7	Z7	X8	Y8	Z8	X9	Y9	Z9	X10	Y10	Z10	X11	Y11	Z11	X12	Y12	Z12	X13	Y13	Z13	X14	Y14	Z14	X15	Y15	Z15	X16	Y16	Z16	X17	Y17	Z17	X18	Y18	Z18	
175	1.45833	197.716	-2.27874	-2.98891	188.594	-6.10407	-36.3284	183.263	-10.2312	-65.1295	181.671	-27.3519	-80.7533	236.312	-25.1958	-62.2116	218.947	-33.1583	-88.0053	188.337	-42.713	-94.2546	256.138	-43.6584	-53.8957	259.78	-51.725	-86.5995	253.893	-63.9609	-111.397	255.781	-63.8695	-40.102	264.459	-71.6741	-64.5588	265.423	-81.9005	-86.3449	245.198	-82.9511	-23.9501	251.967	-91.1955	-41.4966	259.81	-105.266	-56.7859	241.221	-50.9113	11.851	227.773	-43.5727	35.8941	233.956	-16.5363	11.8629	
176	1.46667	191.226	-2.33346	-0.111937	184.06	-3.96313	-33.6408	180.266	-7.88907	-64.9948	184.098	-24.7096	-81.6293	234.814	-13.3505	-63.1365	217.829	-19.5025	-88.7291	193.864	-34.5299	-95.0713	259.211	-28.0687	-56.1666	262.83	-31.1745	-85.1399	260.619	-42.4191	-114.222	261.168	-43.6856	-42.8328	270.151	-48.8761	-62.6305	276.851	-61.3149	-91.0743	253.693	-67.5647	-25.0626	263.367	-78.8101	-40.05	272.901	-87.7885	-58.4359	244.695	-40.6306	5.61097	231.095	-38.2633	36.2924	226.861	-9.46774	11.6968	
177	1.475	181.663	-2.39262	2.91631	174.406	-3.09329	-31.0037	178.76	-7.45359	-61.5035	178.132	-16.485	-84.3808	225.461	5.07035	-61.1482	214.897	-9.90444	-88.1029	194.99	-28.0622	-95.0485	254.781	-9.33742	-50.377	259.598	-6.62023	-84.3162	261.021	-15.6965	-116.692	262.697	-30.1233	-39.32	274.353	-30.0158	-62.0761	280.854	-34.6712	-89.5982	258.589	-54.3318	-24.4899	270.022	-55.5433	-41.5788	282.101	-61.9561	-64.5415	242.011	-27.4701	10.563	231.858	-32.8381	37.0969	219.66	-0.986822	16.3307	
178	1.48333	177.239	-7.17357	7.03935	171.189	-4.63529	-30.1789	168.235	-2.90539	-59.2766	175.93	-10.1496	-82.2255	216.202	16.5377	-52.8963	209.509	6.09832	-83.7416	192.309	-19.4931	-94.3308	246.085	9.14172	-47.2509	251.923	14.9156	-75.8363	254.941	10.1438	-113.013	258.33	-7.9556	-39.9304	271.677	-8.44326	-59.7197	278.926	-9.10648	-86.2131	258.699	-34.5212	-25.0594	273.057	-35.5418	-42.4921	287.453	-40.0725	-60.3725	238.948	-17.5681	9.14909	232.379	-26.6799	35.8309	213.572	-0.17891	17.6293	
179	1.49167	172.411	-8.28294	7.23424	166.88	-7.15263	-24.0439	165.078	-4.59354	-51.0523	173.492	-6.88854	-75.8885	209.609	24.7224	-52.6464	197.716	16.4207	-79.8197	192.909	-8.55118	-91.2017	236.676	23.0834	-41.659	243.59	29.7531	-69.3487	245.794	31.5332	-102.911	253.725	4.47963	-35.6686	261.516	14.2468	-59.2553	270.49	16.1072	-86.0822	259.76	-18.6082	-27.9676	271.378	-17.9366	-42.0445	288.126	-18.3652	-61.554	236.795	-11.0696	12.0765	229.597	-24.0707	37.9188	205.955	3.49512	22.3108	
180	1.5	169.685	-12.3184	11.0659	159.14	-9.17355	-19.4189	160.125	-2.32974	-50.4086	163.9	-2.83777	-75.6082	199.718	29.896	-42.9773	192.73	22.5789	-77.0442	182.406	-2.53566	-90.0646	226.792	32.9111	-40.7054	228.931	43.3805	-67.0098	233.228	47.834	-99.1446	240.879	17.4039	-33.2441	254.381	28.195	-58.3638	259.744	33.7045	-80.1109	253.942	-9.46347	-24.1461	268.866	-4.11076	-41.7116	283.734	-1.9268	-59.7383	235.545	-2.26373	11.1537	227.954	-19.3643	40.6694	200.859	4.87718	26.0978	
181	1.50833	165.383	-11.4827	12.179	155.03	-6.89004	-18.3543	151.758	-1.89591	-45.0724	159.1	0.21693	-69.9631	188.147	35.6232	-39.7264	181.533	28.6961	-72.6313	175.633	4.3965	-85.3849	218.926	38.1052	-35.2607	219.442	51.7339	-63.1672	216.749	60.4155	-95.625	237.565	22.5855	-30.7195	244.712	36.4448	-54.8623	244.983	47.2528	-78.2339	252.018	-0.355448	-26.1247	261.393	7.46166	-43.4423	273.904	14.2608	-55.881	225.373	2.07566	15.2922	224.005	-13.6519	38.3584	196.434	4.10963	26.9946	
182	1.51667	158.85	-11.2364	17.0143	149.996	-7.95541	-11.7631	144.356	3.91557	-44.9019	150.993	5.72646	-68.3753	178.039	41.0267	-38.1121	172.185	34.8319	-67.9493	167.529	10.5079	-81.832	207.153	42.9307	-31.6231	209.124	56.0036	-57.8534	201.591	67.703	-92.2237	224.732	29.1287	-28.2006	232.921	44.8428	-52.5668	236.211	54.1216	-78.1035	244.125	8.20237	-26.2629	251.177	17.0364	-43.3703	262.461	26.0514	-55.2373	222.537	8.20846	13.8337	223.397	-14.7523	38.6835	190.848	8.71693	30.995	
183	1.525	157.301	-12.809	20.7531	144.115	-6.67521	-9.94359	135.354	2.72097	-37.2993	140.142	7.10617	-62.9924	171.344	41.1176	-29.1098	157.381	38.8771	-60.2624	150.203	15.9422	-77.3404	199.494	45.4365	-29.8488	195.903	61.6793	-56.9081	190.051	68.9309	-88.9049	217.059	35.9787	-29.6986	218.998	50.5456	-51.7657	218.922	60.6964	-74.3625	234.935	8.52595	-24.8351	242.503	21.4927	-41.9112	250.528	36.9392	-58.1687	216.797	8.73419	15.561	218.543	-13.3361	39.5172	184.736	9.23505	32.2292	
184	1.53333	148.238	-11.3327	24.498	137.667	-5.1679	-4.94226	127.263	3.53738	-32.3656	132.015	7.59824	-55.085	156.171	42.6942	-25.8417	144.641	39.7746	-56.6758	138.486	17.8239	-73.0564	186.49	48.5898	-28.0362	182.677	60.8365	-51.0783	172.231	72.5929	-84.6237	203.412	34.8379	-25.9806	202.661	52.9489	-47.3595	204.212	63.9449	-72.8971	220.077	12.2019	-23.9758	231.975	24.0012	-41.1882	239.426	36.9353	-56.2056	206.624	7.89702	16.601	209.701	-9.22528	39.039	178.78	7.10089	35.1547	
185	1.54167	142.536	-15.8626	31.8834	124.315	-10.0377	4.49454	118.271	0.387861	-22.9413	118.111	6.31153	-48.2593	143.883	42.4168	-21.3073	130.748	41.4861	-47.2676	122.802	13.8937	-67.4346	167.88	51.0601	-23.4183	163.464	63.2532	-49.35	152.261	71.307	-75.6466	190.031	38.9898	-25.9704	190.504	51.4425	-42.5109	183.61	66.903	-66.4187	206.202	14.0553	-22.1549	213.89	29.3384	-40.7919	221.414	39.896	-55.4004	197.114	10.5392	16.7749	204.741	-13.1692	41.3163	170.54	5.88061	41.3524	
186	1.55	134.218	-19.3918	38.7015	114.189	-11.8492	10.8092	105.616	-0.0627817	-16.6693	102.698	4.97179	-39.9306	128.631	39.0138	-11.3383	112.365	36.7741	-40.8561	105.336	12.7197	-58.4469	152.253	47.9531	-16.1672	142.736	62.2645	-38.3157	129.247	73.3472	-70.4777	175.366	39.6964	-21.7927	171.121	53.122	-39.731	162.968	67.8756	-61.2815	196.654	18.2944	-22.7256	194.512	32.0501	-38.1227	200.289	45.8223	-51.8912	186.066	9.76211	21.2826	197.914	-8.90625	42.1887	160.664	9.32473	42.4485	
187	1.55833	126.782	-23.8425	43.8874	107.155	-15.2667	15.9046	91.2898	-7.78619	-7.77007	86.4619	-0.487092	-31.7795	116.403	35.2387	-6.35321	93.7376	31.819	-35.2032	89.939	9.70549	-52.6627	136.758	45.6964	-12.3656	120.992	61.3923	-36.3455	109.059	70.2487	-64.1801	156.608	40.2132	-17.5145	149.619	53.1103	-33.5515	141.479	68.9171	-58.4349	181.824	21.1969	-22.327	182.967	33.9639	-39.0426	185.492	49.906	-53.1504	178.47	10.81	23.2586	187.239	-5.67382	42.2788	150.607	6.30138	45.8359	
188	1.56667	120.553	-27.2837	46.9829	94.7735	-22.7093	23.0649	81.0326	-10.1644	-3.46917	73.9212	-5.45333	-25.3873	99.0543	31.9207	-1.56194	81.9901	25.9788	-29.3313	76.1009	5.03798	-46.7202	120.758	46.0969	-8.35263	111.672	57.0187	-30.1874	91.4145	66.3505	-59.8472	141.215	37.5627	-12.5983	135.572	52.3569	-31.1024	125.35	66.2878	-54.67	165.175	19.9955	-17.3334	166.17	35.3174	-35.672	168.466	51.1648	-52.0854	167.05	8.51359	25.5149	177.27	-4.25526	43.8848	146.778	2.18679	50.5834	
189	1.575	109.46	-29.4335	48.4385	87.34	-24.7833	23.7705	69.4521	-16.0293	-1.45461	66.4842	-10.3348	-23.4186	90.014	24.7879	3.06218	68.6123	19.2017	-24.8716	62.7882	-2.35883	-40.6564	110.053	42.6034	-5.41338	92.6606	55.5897	-28.3321	77.2589	60.9657	-53.1084	129.398	37.5449	-12.3723	119.782	50.7107	-28.7353	112.746	61.5225	-52.4032	159.257	16.2124	-16.7499	154.624	33.5209	-35.9829	156.965	44.7549	-52.3542	158.851	9.59908	26.2624	170.339	-6.55039	46.3464	134.241	-0.218971	52.5436	
190	1.58333	107.994	-35.1273	51.2087	83.5803	-30.2139	24.8042	66.1071	-25.397	1.82442	60.141	-17.7678	-23.7951	80.2986	19.3438	1.17418	62.5597	11.7966	-24.7259	58.8665	-13.3454	-42.6983	104.77	35.1123	-5.46411	88.03	48.5636	-32.1872	70.9429	52.1089	-59.9395	122.087	32.9818	-13.9776	113.261	45.1917	-30.6248	101.635	57.0969	-56.3798	149.01	13.6099	-15.5533	149.645	27.9921	-36.2001	151.431	38.7831	-55.446	151.108	8.47556	23.3084	165.872	-8.89433	47.3152	127.078	-2.07323	53.0498	
191	1.59167	104.499	-34.9755	46.025	85.0631	-38.2576	25.2088	61.628	-33.0944	-1.9712	56.3899	-32.2946	-22.3733	78.4949	11.3024	-9.09683	61.8574	0.43639	-31.1781	58.7194	-24.7543	-44.2093	99.9111	29.6778	-16.7401	86.3904	37.0753	-38.1875	67.3434	37.2253	-66.5178	123.553	23.7779	-17.166	110.425	36.2229	-37.0285	98.3735	44.3173	-61.2544	151.01	9.21519	-20.968	151.465	19.6631	-41.3544	146.925	32.5371	-61.1927	144.859	6.15174	24.5927	159.824	-9.55085	45.6818	124.841	-3.417	45.2416	
192	1.6	102.349	-38.9987	45.2371	79.6296	-45.6564	22.1969	65.6539	-41.7572	-4.69139	57.5815	-44.7713	-25.9036	77.0499	-0.189905	-13.4246	67.0092	-11.895	-38.9039	67.4587	-45.1504	-48.8977	101.515	18.1526	-25.1933	85.4397	21.8459	-49.6484	69.1789	20.0673	-77.6825	121.057	15.3553	-26.683	116.39	23.7493	-46.8642	100.572	30.1503	-72.5787	147.975	0.935062	-25.9908	152.176	9.75734	-46.3998	155.865	18.5927	-64.4012	145.241	-0.888476	18.3557	156.577	-10.0276	40.7902	123.144	-7.98731	45.9129	
193	1.60833	105.368	-43.7314	44.223	80.9306	-50.536	16.2601	67.3528	-56.0066	-4.171	60.274	-58.6792	-29.712	83.3754	-11.5827	-21.0458	70.1021	-29.4259	-45.6451	73.9075	-63.5339	-47.1076	103.562	3.88622	-34.5877	92.1575	5.3671	-57.282	78.0444	-1.05665	-87.1924	130.01	-0.221158	-31.2722	118.898	8.14139	-56.7435	111.035	12.5911	-83.9149	158.12	-15.2262	-28.3715	160.066	-5.17593	-52.0497	164.075	3.2324	-71.1989	148.869	-5.36382	10.2315	162.867	-14.5015	39.1497	124.258	-11.8652	39.628	
194	1.61667	102.231	-45.3853	41.7044	81.8322	-56.9684	16.2169	67.8534	-63.7289	-9.01768	65.5973	-71.2256	-29.8984	89.3315	-24.5593	-33.7191	76.9498	-48.1179	-51.4028	84.4336	-76.9921	-48.1919	112.521	-8.77399	-44.575	103.336	-11.6064	-70.4623	89.8141	-21.5073	-97.5847	136.02	-13.9896	-39.5792	132.497	-9.92182	-63.5136	127.897	-9.06839	-89.7623	158.967	-26.0761	-33.5616	167.387	-24.9118	-50.431	168.746	-16.2959	-69.9981	149.673	-15.6153	6.25413	161.943	-17.5994	35.3562	123.732	-13.6377	31.2117	
195	1.625	105.245	-46.3806	37.1301	86.776	-61.7745	13.8516	74.0624	-73.1991	-6.58992	73.1082	-82.6747	-29.5087	93.1252	-38.4173	-37.1182	81.057	-63.906	-51.649	85.7372	-95.151	-39.5384	114.581	-22.8458	-47.5017	106.664	-29.4866	-74.7505	100.437	-43.3823	-100.403	142.825	-27.9692	-44.3434	139.478	-26.5441	-66.6221	134.759	-29.0039	-94.4269	166.049	-39.2446	-33.6755	174.071	-40.5726	-50.7053	175.849	-32.4846	-73.6408	150.803	-23.5989	7.41042	163.299	-23.0569	32.9119	127.69	-19.2523	27.588	
196	1.63333	105.97	-49.1378	38.5769	88.5105	-67.2061	15.4769	77.6563	-81.7499	-4.6382	72.9737	-95.8168	-24.5676	94.7968	-50.2141	-38.6799	86.0046	-77.5079	-49.1514	88.6424	-106.519	-36.3497	120.063	-36.9639	-51.5035	112.848	-46.4428	-77.5927	103.71	-67.1515	-103.622	143.765	-38.403	-43.3952	145.696	-40.8105	-68.9926	143.006	-47.5729	-95.0767	166.53	-50.6522	-30.9459	178.002	-53.1992	-53.3537	186.489	-49.8199	-68.1459	157.722	-27.6627	1.60369	166.267	-25.7699	34.0692	129.373	-22.99	23.0969	
197	1.64167	107.692	-49.856	40.0987	88.2549	-71.3758	16.8345	77.0438	-88.0061	-2.57913	78.1614	-103.974	-16.953	99.7153	-58.9158	-36.0018	90.0249	-90.3886	-46.0363	94.1156	-114.316	-34.2392	123.59	-47.0186	-46.9542	116.813	-59.2793	-72.8626	109.717	-86.2974	-99.68	146.485	-49.5159	-42.3111	149.819	-55.6574	-69.2774	145.101	-63.4667	-91.6535	174.323	-60.6479	-25.3857	180.958	-65.6347	-49.3392	186.384	-67.0861	-67.241	157.599	-35.2677	1.90121	164.085	-27.0331	34.5674	128.035	-23.2601	21.3429	
198	1.65	109.757	-48.4609	39.2624	92.4541	-70.2063	24.1021	78.3847	-90.2269	3.28312	74.4307	-110.527	-13.7766	100.605	-62.625	-33.3074	91.6891	-95.7906	-42.5704	89.4887	-122.789	-25.0712	130.361	-58.0529	-48.7974	116.403	-72.9661	-72.7998	109.115	-98.1661	-93.1381	152.148	-60.4204	-39.9831	150.754	-68.0311	-67.6504	146.696	-79.5911	-86.9902	174.952	-68.9545	-24.657	183.855	-77.6154	-44.9996	190.696	-80.6592	-61.0742	160.574	-39.641	4.38103	165.804	-28.3869	28.1305	134.393	-26.7322	20.2611	
